<svg width="34" height="34" viewBox="0 0 34 34" fill="none" xmlns="http://www.w3.org/2000/svg">
<rect x="0.68" y="0.68" width="32.64" height="32.64" rx="8.32" fill="#190423"/>
<rect x="0.68" y="0.68" width="32.64" height="32.64" rx="8.32" stroke="#8A8CF5" stroke-width="0.64"/>
<path d="M25.5004 18.4663V24.7631H21.8499V18.8879C21.8499 17.4116 21.3217 16.4047 20.0007 16.4047C18.9921 16.4047 18.3913 17.0839 18.1276 17.7401C18.0312 17.9748 18.0065 18.3016 18.0065 18.6301V24.7631H14.3542C14.3542 24.7631 14.4037 14.8132 14.3542 13.7815H18.0065V15.338L17.9826 15.3738H18.0065V15.338C18.4911 14.5913 19.3573 13.5238 21.2969 13.5238C23.699 13.5238 25.5004 15.0939 25.5004 18.4663ZM10.5347 8.48828C9.28624 8.48828 8.46875 9.30748 8.46875 10.3852C8.46875 11.4391 9.26235 12.2831 10.4869 12.2831H10.5108C11.7848 12.2831 12.5758 11.4391 12.5758 10.3852C12.5537 9.30748 11.7848 8.48828 10.5347 8.48828ZM8.6855 24.7631H12.3361V13.7815H8.6855V24.7631Z" fill="#8A8CF5"/>
</svg>
