<svg width="34" height="34" viewBox="0 0 34 34" fill="none" xmlns="http://www.w3.org/2000/svg">
<rect x="0.68" y="0.68" width="32.64" height="32.64" rx="8.32" fill="#190423"/>
<rect x="0.68" y="0.68" width="32.64" height="32.64" rx="8.32" stroke="#8A8CF5" stroke-width="0.64"/>
<path d="M17.8798 8.4668C18.8398 8.46936 19.327 8.47448 19.7477 8.48642L19.9133 8.4924C20.1044 8.49922 20.293 8.50776 20.5209 8.518C21.4288 8.56066 22.0483 8.70402 22.5919 8.9148C23.1551 9.13154 23.6296 9.42509 24.104 9.89869C24.5381 10.3251 24.8739 10.8412 25.0879 11.4108C25.2987 11.9544 25.442 12.5739 25.4847 13.4827C25.4949 13.7097 25.5035 13.8983 25.5103 14.0903L25.5154 14.2558C25.5282 14.6757 25.5333 15.1629 25.535 16.1229L25.5359 16.7595V17.8774C25.538 18.4998 25.5314 19.1222 25.5163 19.7444L25.5112 19.91C25.5043 20.102 25.4958 20.2906 25.4856 20.5176C25.4429 21.4264 25.2978 22.045 25.0879 22.5895C24.8739 23.1591 24.5381 23.6751 24.104 24.1016C23.6776 24.5357 23.1615 24.8714 22.5919 25.0855C22.0483 25.2962 21.4288 25.4396 20.5209 25.4823L19.9133 25.5079L19.7477 25.513C19.327 25.5249 18.8398 25.5309 17.8798 25.5326L17.2432 25.5335H16.1262C15.5035 25.5357 14.8808 25.5291 14.2582 25.5138L14.0927 25.5087C13.8901 25.501 13.6876 25.4922 13.4851 25.4823C12.5772 25.4396 11.9577 25.2962 11.4132 25.0855C10.8439 24.8713 10.3282 24.5356 9.90198 24.1016C9.46759 23.6752 9.13151 23.1592 8.91724 22.5895C8.70646 22.0459 8.5631 21.4264 8.52044 20.5176L8.49484 19.91L8.49057 19.7444C8.47484 19.1222 8.46773 18.4998 8.46924 17.8774V16.1229C8.46687 15.5005 8.47313 14.8781 8.48801 14.2558L8.49398 14.0903C8.50081 13.8983 8.50934 13.7097 8.51958 13.4827C8.56225 12.5739 8.70561 11.9552 8.91638 11.4108C9.13116 10.8409 9.46783 10.3249 9.90284 9.89869C10.3288 9.46481 10.8442 9.12905 11.4132 8.9148C11.9577 8.70402 12.5763 8.56066 13.4851 8.518C13.7121 8.50776 13.9016 8.49922 14.0927 8.4924L14.2582 8.48728C14.8805 8.47212 15.5029 8.46557 16.1253 8.46765L17.8798 8.4668ZM17.0026 12.7335C15.871 12.7335 14.7857 13.183 13.9856 13.9831C13.1854 14.7833 12.7359 15.8685 12.7359 17.0001C12.7359 18.1317 13.1854 19.217 13.9856 20.0171C14.7857 20.8173 15.871 21.2668 17.0026 21.2668C18.1342 21.2668 19.2194 20.8173 20.0196 20.0171C20.8197 19.217 21.2692 18.1317 21.2692 17.0001C21.2692 15.8685 20.8197 14.7833 20.0196 13.9831C19.2194 13.183 18.1342 12.7335 17.0026 12.7335ZM17.0026 14.4401C17.3388 14.4401 17.6717 14.5062 17.9823 14.6348C18.2929 14.7634 18.5751 14.952 18.8129 15.1896C19.0506 15.4273 19.2393 15.7095 19.368 16.0201C19.4967 16.3306 19.5629 16.6635 19.563 16.9997C19.5631 17.3359 19.4969 17.6688 19.3683 17.9794C19.2397 18.29 19.0512 18.5723 18.8135 18.81C18.5758 19.0478 18.2936 19.2364 17.9831 19.3651C17.6725 19.4938 17.3396 19.5601 17.0034 19.5601C16.3245 19.5601 15.6733 19.2904 15.1932 18.8103C14.7131 18.3302 14.4434 17.6791 14.4434 17.0001C14.4434 16.3212 14.7131 15.67 15.1932 15.1899C15.6733 14.7098 16.3245 14.4401 17.0034 14.4401M21.4834 11.4535C21.2005 11.4535 20.9292 11.5658 20.7292 11.7659C20.5291 11.9659 20.4168 12.2372 20.4168 12.5201C20.4168 12.803 20.5291 13.0743 20.7292 13.2744C20.9292 13.4744 21.2005 13.5868 21.4834 13.5868C21.7663 13.5868 22.0376 13.4744 22.2377 13.2744C22.4377 13.0743 22.5501 12.803 22.5501 12.5201C22.5501 12.2372 22.4377 11.9659 22.2377 11.7659C22.0376 11.5658 21.7663 11.4535 21.4834 11.4535Z" fill="#8A8CF5"/>
</svg>
