<svg width="30" height="30" viewBox="0 0 30 30" fill="none" xmlns="http://www.w3.org/2000/svg">
<path d="M15 30C12.925 30 10.975 29.606 9.15 28.818C7.325 28.03 5.7375 26.9615 4.3875 25.6125C3.0375 24.2635 1.969 22.676 1.182 20.85C0.395002 19.024 0.0010019 17.074 1.89873e-06 15C-0.000998101 12.926 0.393002 10.976 1.182 9.15C1.971 7.324 3.0395 5.7365 4.3875 4.3875C5.7355 3.0385 7.323 1.97 9.15 1.182C10.977 0.394 12.927 0 15 0C17.073 0 19.023 0.394 20.85 1.182C22.677 1.97 24.2645 3.0385 25.6125 4.3875C26.9605 5.7365 28.0295 7.324 28.8195 9.15C29.6095 10.976 30.003 12.926 30 15V17.175C30 18.65 29.494 19.9065 28.482 20.9445C27.47 21.9825 26.226 22.501 24.75 22.5C23.875 22.5 23.05 22.3125 22.275 21.9375C21.5 21.5625 20.85 21.025 20.325 20.325C19.6 21.05 18.781 21.594 17.868 21.957C16.955 22.32 15.999 22.501 15 22.5C12.925 22.5 11.1565 21.7685 9.6945 20.3055C8.2325 18.8425 7.501 17.074 7.5 15C7.499 12.926 8.2305 11.1575 9.6945 9.6945C11.1585 8.2315 12.927 7.5 15 7.5C17.073 7.5 18.842 8.2315 20.307 9.6945C21.772 11.1575 22.503 12.926 22.5 15V17.175C22.5 17.825 22.7125 18.375 23.1375 18.825C23.5625 19.275 24.1 19.5 24.75 19.5C25.4 19.5 25.9375 19.275 26.3625 18.825C26.7875 18.375 27 17.825 27 17.175V15C27 11.65 25.8375 8.8125 23.5125 6.4875C21.1875 4.1625 18.35 3 15 3C11.65 3 8.8125 4.1625 6.4875 6.4875C4.1625 8.8125 3 11.65 3 15C3 18.35 4.1625 21.1875 6.4875 23.5125C8.8125 25.8375 11.65 27 15 27H21C21.425 27 21.7815 27.144 22.0695 27.432C22.3575 27.72 22.501 28.076 22.5 28.5C22.499 28.924 22.355 29.2805 22.068 29.5695C21.781 29.8585 21.425 30.002 21 30H15ZM15 19.5C16.25 19.5 17.3125 19.0625 18.1875 18.1875C19.0625 17.3125 19.5 16.25 19.5 15C19.5 13.75 19.0625 12.6875 18.1875 11.8125C17.3125 10.9375 16.25 10.5 15 10.5C13.75 10.5 12.6875 10.9375 11.8125 11.8125C10.9375 12.6875 10.5 13.75 10.5 15C10.5 16.25 10.9375 17.3125 11.8125 18.1875C12.6875 19.0625 13.75 19.5 15 19.5Z" fill="#04040D"/>
</svg>
